<svg width="16" height="16" fill="none" xmlns="http://www.w3.org/2000/svg"><path fill-rule="evenodd" clip-rule="evenodd" d="M4.932 3.633A9.526 9.526 0 018 3.134c1.085 0 2.12.177 3.063.497.898-1.84 2.391-3.607 3.351-3.431 1.294.237 1.301 4.588.929 6.88.423.798.657 1.68.657 2.605 0 1.366-.51 2.634-1.383 3.683-.218.276-1.41 1.306-2.67 1.843-2.42 1.032-7.015.716-9.49-.802C.944 13.217 0 11.54 0 9.685c0-.922.233-1.8.653-2.596C.279 4.799.285.437 1.58.199c.96-.175 2.454 1.592 3.352 3.434zm-.327 4.909c-.589 0-1.046.28-1.361.545a4.429 4.429 0 00-.328.31l-.033.033a.799.799 0 01-.126.11.168.168 0 01-.036.015.136.136 0 01-.104-.011.137.137 0 01-.065-.086.181.181 0 01-.005-.056c.058-1.046.979-1.776 2.063-1.776 1.079 0 2.027.746 2.008 1.78 0 .01-.001.042-.02.074a.137.137 0 01-.094.067.141.141 0 01-.104-.026.226.226 0 01-.026-.023 1.323 1.323 0 01-.073-.084l-.015-.018a2.9 2.9 0 00-.32-.335 2.014 2.014 0 00-1.361-.52zm8.17.513c-.316-.265-.773-.545-1.362-.545a2.01 2.01 0 00-1.36.52c-.145.126-.25.249-.32.334l-.016.018a1.323 1.323 0 01-.073.085.225.225 0 01-.026.022.14.14 0 01-.104.026.137.137 0 01-.094-.067.151.151 0 01-.02-.073c-.019-1.035.93-1.78 2.008-1.78 1.085 0 2.006.729 2.063 1.775 0 .013 0 .034-.005.056a.137.137 0 01-.065.086.136.136 0 01-.104.011.17.17 0 01-.044-.02l-.004-.002a.796.796 0 01-.114-.102l-.033-.034a4.413 4.413 0 00-.327-.31z" fill="#231E23"/></svg>