<svg width="385" height="436" fill="none" xmlns="http://www.w3.org/2000/svg"><path d="M320.808 38.3c-5.609.312-21.552 1.688-28.823 2.337-9.608-11.814-29.524-35.522-32.329-35.834-2.804-.311-1.168 32.589 0 49.078-10.127 13.632-30.381 41.754-30.381 45.182 0 4.285 3.116 21.423 23.37 37.782 16.203 13.087 40.768 33.497 51.025 42.066l-39.34-21.033c-9.607 9.997-29.446 30.459-31.939 32.329-3.116 2.337-66.605 22.981-93.092 71.279-26.486 48.299-29.212 108.282-29.602 149.959-16.749 1.948-86.86-3.116-86.47-58.425 0-36.458 31.42-38.821 47.13-35.445 10.517 3.116 15.97 19.864-6.621 27.655-9.728 3.354-5.52 25.279 9.737 21.812 10.73-2.66 28.266-18.083 28.055-35.196-.212-17.113-10.775-40.142-41.199-40.142-30.423 0-58.945 25.141-59.579 63.382-.633 38.24 34.015 80.284 111.13 80.284h254.646c0-13.61-.253-30.786-31.555-30.786v-32.353c0-15.179 4.394-43.937 31.555-96.263 21.17-41.141 17.974-63.624 17.974-74.693 0-11.068-4.793-45.934-25.164-72.695 0-3.595 19.173-95.464 2.796-127.817-4.793-4.793-29.546 23.028-41.324 37.538z" fill="#DEEEEA" fill-opacity=".15"/></svg>