<svg width="107" height="40" fill="none" xmlns="http://www.w3.org/2000/svg"><path fill-rule="evenodd" clip-rule="evenodd" d="M37.182 39.276h-1.26c-.261 0-.392-.13-.392-.392v-17.22c0-.261.13-.392.392-.392h1.26c.261 0 .392.13.392.392v7.364c0 .168.093.252.28.252h6.944c.187 0 .28-.084.28-.252v-7.364c0-.261.13-.392.392-.392h1.26c.261 0 .392.13.392.392v17.22c0 .261-.13.392-.392.392h-1.26c-.261 0-.392-.13-.392-.392v-7.56c0-.168-.093-.252-.28-.252h-6.944c-.187 0-.28.084-.28.252v7.56c0 .261-.13.392-.392.392zm13.643 0h1.26c.262 0 .392-.13.392-.392V32.36c0-.168.094-.252.28-.252h3.697l3.136 6.776c.149.261.382.392.7.392h1.26c.354 0 .448-.15.28-.448l-3.248-6.804v-.112c.895-.224 1.596-.672 2.1-1.344.503-.69.755-1.559.755-2.604v-2.548c0-1.288-.373-2.296-1.12-3.024-.746-.747-1.764-1.12-3.051-1.12h-6.44c-.262 0-.392.13-.392.392v17.22c0 .261.13.392.392.392zm6.16-8.876h-4.227c-.187 0-.28-.084-.28-.252v-6.832c0-.168.093-.252.28-.252h4.227c1.606 0 2.409.812 2.409 2.436v2.492c0 1.605-.803 2.408-2.408 2.408zm9.552-8.736v17.22c0 .261-.131.392-.393.392h-1.26c-.26 0-.391-.13-.391-.392v-17.22c0-.261.13-.392.392-.392h1.26c.26 0 .392.13.392.392zm3.253 12.572v.896c0 1.288.374 2.305 1.12 3.052.747.728 1.755 1.092 3.024 1.092h3.22c1.27 0 2.278-.364 3.024-1.092.747-.747 1.12-1.764 1.12-3.052v-1.26c0-.84-.177-1.55-.532-2.128-.336-.597-.784-1.036-1.344-1.316a8.913 8.913 0 00-1.876-.728 15.75 15.75 0 00-2.016-.476c-.672-.13-1.288-.27-1.848-.42-1.25-.355-1.876-1.008-1.876-1.96v-1.12c0-1.773.831-2.66 2.492-2.66h2.38c1.662 0 2.492.85 2.492 2.548v.504c0 .28.122.42.364.42h1.288c.243 0 .364-.14.364-.42v-.7c0-1.288-.373-2.296-1.12-3.024-.746-.747-1.754-1.12-3.024-1.12h-3.108c-1.288 0-2.305.373-3.052 1.12-.728.728-1.092 1.736-1.092 3.024v1.372c0 1.12.327 2.007.98 2.66.654.635 1.447 1.064 2.38 1.288.934.224 1.867.42 2.8.588 2.222.41 3.332 1.288 3.332 2.632v.952c0 1.717-.83 2.576-2.492 2.576h-2.464c-1.66 0-2.492-.84-2.492-2.52v-.728c0-.261-.13-.392-.392-.392h-1.26c-.26 0-.392.13-.392.392zm19.004 5.04h-1.26c-.262 0-.392-.13-.392-.392V23.316c0-.168-.094-.252-.28-.252h-3.808c-.28 0-.42-.13-.42-.392v-1.008c0-.261.14-.392.42-.392h10.22c.175 0 .295.051.36.153a.204.204 0 01.025-.041c.056-.075.14-.112.252-.112h1.568c.205 0 .364.13.476.392l4.004 8.484h.14l3.976-8.484c.075-.261.224-.392.448-.392h1.596c.317 0 .401.14.252.42l-5.348 10.836v6.356c0 .261-.131.392-.392.392h-1.26c-.261 0-.392-.13-.392-.392v-6.356l-5.285-10.765v.909c0 .261-.14.392-.42.392h-3.808c-.187 0-.28.084-.28.252v15.568c0 .261-.131.392-.392.392zM31.455.054c.236-.068.777-.149 1.21.285a.999.999 0 01.185.255c.452.893.617 2.084.662 3.25.046 1.197-.033 2.5-.153 3.7a54.519 54.519 0 01-.418 3.158c-.058.357-.11.665-.15.902l-.018.112-.004.024c1.704 2.462 2.105 5.447 2.105 6.483 0 .074.003.164.006.27.013.454.034 1.189-.107 2.113-.176 1.157-.598 2.623-1.55 4.473l-.001.003c-.123.237-.24.468-.352.693v1.013c0 .261-.131.392-.392.392h-1.051c-.603-.046-.603-.649-.602-1.706v-.069c-.03-1.56-.814-2.341-2.351-2.341H25.59c-1.55 0-2.324.812-2.324 2.436v9.548c0 1.15.388 1.892 1.164 2.228h5.217c1.178 0 1.179-.155 1.178-.504V33.76c0-.261.131-.392.393-.392h1.26c.26 0 .392.13.392.392v1.372c0 .063.001.226.004.444v.002c.008.781.024 2.269-.004 2.472 0 0-.286 1.226-1.12 1.226h-8.14c-.987-.257-1.657-.684-2.033-1.624-.376-.94-.355-1.578-.355-2.52v-9.716c0-1.307.364-2.324 1.092-3.052.746-.728 1.764-1.092 3.052-1.092h3.36c1.288 0 2.296.364 3.024 1.092.125.122.24.253.345.392.404-.998.603-1.806.7-2.45a8.711 8.711 0 00.086-1.696c-.003-.133-.007-.26-.007-.387 0-.811-.38-3.559-1.951-5.622a1 1 0 01-.204-.606c0-.107.02-.237.028-.286l.002-.01c.012-.083.03-.191.051-.315l.02-.115c.04-.236.09-.535.146-.883.13-.814.288-1.892.403-3.041.116-1.153.185-2.356.144-3.424a10.208 10.208 0 00-.142-1.422c-.081.076-.166.157-.255.246a29.079 29.079 0 00-1.921 2.147 1 1 0 01-.721.368c-.46.026-1.806.142-2.436.198a1 1 0 01-.865-.365c-.29-.357-.69-.84-1.094-1.315.026.63.064 1.27.098 1.748a1 1 0 01-.195.667 87.002 87.002 0 00-1.606 2.235c-.268.387-.5.736-.663 1a6.576 6.576 0 00-.113.188l.017.074c.036.146.1.342.211.573.22.457.629 1.056 1.38 1.662a420.905 420.905 0 014.383 3.614 1 1 0 01-1.113 1.65l-2.703-1.446c-.34.351-.724.747-1.078 1.108-.278.284-.54.549-.748.754a6.54 6.54 0 01-.505.47 1.53 1.53 0 01-.29.163l-.006.003c-.068.031-.153.067-.24.105l-.08.033c-.17.072-.376.159-.618.266-.562.25-1.3.601-2.096 1.068-1.61.945-3.359 2.309-4.368 4.148-2.136 3.895-2.38 8.8-2.412 12.375-.013 1.366-2.165 1.04.659 1.04 3.004 0 6.635-4.64 6.786-4.483.835.876-.665 6.483-8.258 6.483-6.975 0-10.587-3.887-10.52-7.894.063-3.802 2.932-6.413 6.104-6.413 1.586 0 2.754.615 3.508 1.536.264.321.469.67.624 1.027.39-1.585.95-3.164 1.756-4.632 1.26-2.298 3.365-3.888 5.108-4.911a22.796 22.796 0 012.298-1.172c.26-.115.484-.21.653-.281l.076-.032.153-.066c.044-.042.129-.123.261-.254.197-.195.451-.452.727-.733.46-.47.974-1 1.37-1.41l-.688-.56c-1.966-1.588-2.374-3.34-2.374-4.014 0-.21.065-.38.084-.433.031-.082.069-.16.102-.225a6.38 6.38 0 01.248-.432c.19-.307.445-.689.72-1.086a86.729 86.729 0 011.426-1.994 55.859 55.859 0 01-.105-2.323 14.32 14.32 0 01.015-1.202 3.03 3.03 0 01.068-.503A1.3 1.3 0 0122.29.89c.082-.133.403-.56 1-.493.255.029.44.148.487.178l.004.002c.077.05.145.104.197.148.107.09.221.2.333.313.226.23.503.535.786.859.433.493.906 1.055 1.29 1.521a167.86 167.86 0 011.533-.126 29.77 29.77 0 011.79-1.97c.364-.361.752-.712 1.101-.95.168-.113.392-.248.644-.32zM1.926 31.222v-.004c.002-2.81 1.56-4.193 3.944-4.255 2.385-.06 3.608 2.055 2.243 3.707a3.42 3.42 0 01-1.148.738c-.562.088-1.283.334-1.272 1.114.012.876 1.18 1.008 1.76.876l.018-.005c.704-.174 1.466-.695 2.04-1.328a48.252 48.252 0 00-.163 3.18c0 1.303-1.944 2.052-3.043 1.606-1.563-.634-4.379-2.248-4.379-5.63z" fill="#39A6A3"/></svg>