<svg width="13" height="13" fill="none" xmlns="http://www.w3.org/2000/svg"><path d="M3.1 5.973c.517 1.042.306 2.135-.472 2.443-.778.307-1.827-.289-2.345-1.33-.517-1.042-.306-2.136.472-2.443.777-.308 1.827.288 2.345 1.33zm7.348 4.953c0 2.195-2.786.723-3.51.723-.725 0-4.61 2.019-4.61-.176 0-1.604 2.438-4.646 4.011-4.646 1.67 0 4.109 2.884 4.109 4.1zM5.83 2.937c.292 1.25-.14 2.387-.966 2.54-.825.153-1.73-.736-2.022-1.985-.292-1.25.14-2.387.966-2.54.825-.153 1.73.735 2.022 1.985zm.981 0c-.292 1.25.14 2.387.966 2.54.825.153 1.73-.736 2.022-1.985.292-1.25-.14-2.387-.966-2.54-.825-.153-1.73.735-2.022 1.985zm2.722 3.421c-.423 1.075-.116 2.15.687 2.402.802.25 1.796-.417 2.22-1.492.423-1.075.115-2.15-.687-2.402-.803-.251-1.797.416-2.22 1.492z" fill="#DEEEEA"/></svg>