<svg width="108" height="40" fill="none" xmlns="http://www.w3.org/2000/svg"><path fill-rule="evenodd" clip-rule="evenodd" d="M37.96 39.35H36.7c-.26 0-.391-.13-.391-.392v-17.22c0-.261.13-.392.392-.392h1.26c.261 0 .392.13.392.392v7.364c0 .168.093.252.28.252h6.944c.186 0 .28-.084.28-.252v-7.364c0-.261.13-.392.392-.392h1.26c.261 0 .392.13.392.392v17.22c0 .261-.131.392-.392.392h-1.26c-.262 0-.392-.13-.392-.392v-7.56c0-.168-.094-.252-.28-.252h-6.944c-.187 0-.28.084-.28.252v7.56c0 .261-.131.392-.392.392zm13.644 0h1.26c.262 0 .392-.13.392-.392v-6.524c0-.168.093-.252.28-.252h3.696l3.136 6.776c.15.261.383.392.7.392h1.26c.355 0 .448-.15.28-.448l-3.248-6.804v-.112c.896-.224 1.596-.672 2.1-1.344.504-.69.756-1.558.756-2.604V25.49c0-1.288-.373-2.296-1.12-3.024-.746-.747-1.764-1.12-3.052-1.12h-6.44c-.261 0-.392.13-.392.392v17.22c0 .261.13.392.392.392zm6.16-8.876h-4.228c-.187 0-.28-.084-.28-.252V23.39c0-.168.093-.252.28-.252h4.228c1.605 0 2.408.812 2.408 2.436v2.492c0 1.606-.802 2.408-2.408 2.408zm9.551-8.736v17.22c0 .261-.13.392-.392.392h-1.26c-.261 0-.392-.13-.392-.392v-17.22c0-.261.13-.392.392-.392h1.26c.261 0 .392.13.392.392zM70.57 34.31v.896c0 1.288.373 2.305 1.12 3.052.747.728 1.755 1.092 3.024 1.092h3.22c1.27 0 2.277-.364 3.024-1.092.747-.747 1.12-1.764 1.12-3.052v-1.26c0-.84-.177-1.55-.532-2.128-.336-.597-.784-1.036-1.344-1.316a8.913 8.913 0 00-1.876-.728 15.75 15.75 0 00-2.016-.476c-.672-.13-1.288-.27-1.848-.42-1.25-.355-1.876-1.008-1.876-1.96v-1.12c0-1.773.83-2.66 2.492-2.66h2.38c1.662 0 2.492.85 2.492 2.548v.504c0 .28.121.42.364.42h1.288c.243 0 .364-.14.364-.42v-.7c0-1.288-.373-2.296-1.12-3.024-.746-.747-1.754-1.12-3.024-1.12h-3.108c-1.288 0-2.305.373-3.052 1.12-.728.728-1.092 1.736-1.092 3.024v1.372c0 1.12.327 2.007.98 2.66.653.635 1.447 1.064 2.38 1.288.933.224 1.867.42 2.8.588 2.222.41 3.332 1.288 3.332 2.632v.952c0 1.718-.83 2.576-2.492 2.576h-2.464c-1.661 0-2.492-.84-2.492-2.52v-.728c0-.261-.13-.392-.392-.392h-1.26c-.261 0-.392.13-.392.392zm19.003 5.04h-1.26c-.261 0-.392-.13-.392-.392V23.39c0-.168-.093-.252-.28-.252h-3.808c-.28 0-.42-.13-.42-.392v-1.008c0-.261.14-.392.42-.392h10.22c.175 0 .296.051.361.154a.204.204 0 01.025-.042c.056-.074.14-.112.252-.112h1.568c.205 0 .364.13.476.392l4.004 8.484h.14l3.976-8.484c.074-.261.224-.392.448-.392h1.596c.317 0 .401.14.252.42l-5.348 10.836v6.356c0 .261-.131.392-.392.392h-1.26c-.262 0-.392-.13-.392-.392v-6.356l-5.286-10.765v.91c0 .26-.14.391-.42.391h-3.808c-.186 0-.28.084-.28.252v15.568c0 .261-.13.392-.392.392zM32.234.128c.235-.067.776-.148 1.21.285a1 1 0 01.185.256c.452.892.617 2.084.662 3.25.045 1.196-.033 2.5-.153 3.7a54.517 54.517 0 01-.419 3.158c-.057.357-.109.664-.149.9l-.019.114-.004.023c1.705 2.462 2.106 5.447 2.106 6.483 0 .074.003.165.005.27.013.454.034 1.189-.106 2.113-.176 1.158-.598 2.623-1.55 4.473l-.001.003c-.123.237-.24.468-.353.694v1.012c0 .262-.13.392-.392.392h-1.05c-.603-.045-.603-.649-.603-1.706v-.069c-.03-1.56-.814-2.34-2.35-2.34h-2.885c-1.55 0-2.324.811-2.324 2.435v9.548c0 1.15.388 1.892 1.165 2.228h5.217c1.177 0 1.178-.154 1.177-.504l.001-2.027v-.985c0-.261.13-.392.392-.392h1.26c.262 0 .392.13.392.392v1.372l.004.444v.003c.009.78.025 2.268-.004 2.472 0 0-.285 1.225-1.12 1.225H24.39c-.988-.257-1.657-.684-2.033-1.624-.376-.94-.356-1.578-.356-2.52V25.49c0-1.306.364-2.324 1.092-3.052.747-.728 1.764-1.092 3.052-1.092h3.36c1.288 0 2.296.364 3.024 1.092.126.123.24.253.345.392.404-.998.604-1.806.702-2.45.11-.728.097-1.242.085-1.695a13.019 13.019 0 01-.007-.388c0-.811-.381-3.559-1.951-5.622a1 1 0 01-.205-.606c0-.107.02-.237.029-.286l.001-.01.052-.315.02-.114c.04-.237.09-.535.146-.884.13-.814.288-1.892.403-3.04.115-1.154.185-2.357.144-3.425a10.204 10.204 0 00-.143-1.421c-.08.075-.165.157-.255.245a29.079 29.079 0 00-1.92 2.147 1 1 0 01-.722.368c-.46.026-1.805.142-2.435.198a1 1 0 01-.865-.365c-.29-.357-.69-.84-1.095-1.315.027.63.065 1.27.099 1.748a1 1 0 01-.195.667 87.263 87.263 0 00-1.607 2.235c-.267.388-.5.736-.663 1a6.783 6.783 0 00-.113.189l.017.074c.036.145.1.342.212.572.22.457.628 1.056 1.379 1.662a420.074 420.074 0 014.384 3.615 1 1 0 01-1.113 1.649l-2.703-1.445c-.34.35-.724.746-1.078 1.107-.278.284-.54.55-.748.754a6.54 6.54 0 01-.505.47c-.114.085-.25.146-.29.164l-.006.003-.241.104-.08.033c-.168.072-.375.159-.617.266-.562.25-1.301.602-2.097 1.069-1.61.945-3.358 2.308-4.367 4.148-2.136 3.894-2.38 8.8-2.413 12.374-.013 1.366-2.164 1.04.66 1.04 3.004 0 6.635-4.64 6.786-4.482.835.875-.666 6.482-8.259 6.482-6.975 0-10.586-3.886-10.52-7.894.064-3.801 2.932-6.413 6.104-6.413 1.587 0 2.755.616 3.509 1.536.263.322.468.67.623 1.028.39-1.586.951-3.165 1.756-4.633 1.26-2.298 3.365-3.888 5.109-4.911a22.8 22.8 0 012.297-1.172c.26-.115.485-.21.654-.281l.076-.032.152-.065c.045-.043.13-.123.262-.255.197-.195.451-.452.727-.733.46-.47.974-1 1.37-1.41-.242-.198-.474-.386-.689-.56-1.965-1.587-2.373-3.34-2.373-4.014 0-.21.064-.38.084-.433a2.18 2.18 0 01.101-.224c.067-.132.155-.281.248-.433.19-.307.445-.689.72-1.086a86.729 86.729 0 011.427-1.994 55.859 55.859 0 01-.105-2.322 14.83 14.83 0 01.014-1.203 3.02 3.02 0 01.069-.503c.018-.072.058-.223.154-.378.083-.133.404-.559 1-.493.256.029.442.148.488.178l.003.002c.078.05.146.104.198.148.106.09.221.2.332.313.227.23.503.536.787.86a66.98 66.98 0 011.29 1.52c.485-.041 1.088-.092 1.533-.126a29.796 29.796 0 011.789-1.97c.365-.361.752-.712 1.102-.95.167-.113.392-.247.644-.32zM2.704 31.296v-.004c.002-2.81 1.56-4.193 3.945-4.254 2.385-.062 3.608 2.054 2.243 3.706a3.42 3.42 0 01-1.148.739c-.562.087-1.283.333-1.273 1.113.012.876 1.18 1.008 1.76.876l.019-.004c.703-.175 1.465-.696 2.04-1.328a47.545 47.545 0 00-.163 3.179c0 1.303-1.945 2.052-3.043 1.606-1.564-.634-4.38-2.248-4.38-5.63z" fill="#DEEEEA"/></svg>