<svg width="16" height="16" viewBox="0 0 16 16" fill="none" xmlns="http://www.w3.org/2000/svg">
<path fill-rule="evenodd" clip-rule="evenodd" d="M4.93213 3.63297C5.87689 3.31144 6.91317 3.13395 8.00012 3.13395C9.08515 3.13395 10.1197 3.31081 11.0631 3.63127C11.961 1.79016 13.4545 0.024234 14.4144 0.199836C15.7083 0.436528 15.7151 4.78789 15.3428 7.08015C15.7657 7.87848 16.0001 8.75926 16.0001 9.68488C16.0001 11.0507 15.4897 12.3189 14.6165 13.3685C14.3992 13.6443 13.2066 14.6744 11.9474 15.2112C9.52686 16.2433 4.93213 15.927 2.45754 14.4088C0.942829 13.2168 0.00012207 11.541 0.00012207 9.68488C0.00012207 8.76251 0.232914 7.88466 0.652984 7.08858C0.279299 4.7986 0.284571 0.436812 1.58 0.199836C2.54014 0.0241708 4.03438 1.79124 4.93213 3.63297ZM4.60502 8.54161C4.01646 8.54161 3.55888 8.82216 3.24355 9.08701C3.10588 9.20263 2.9973 9.31357 2.91625 9.39645L2.88307 9.43032C2.84617 9.46774 2.80394 9.51045 2.76878 9.53306C2.76562 9.53511 2.76177 9.53751 2.75725 9.54C2.7477 9.54534 2.73529 9.55118 2.72084 9.55522C2.69957 9.56119 2.65877 9.56719 2.61691 9.54351C2.5745 9.51951 2.55831 9.48056 2.55236 9.4577C2.54653 9.43534 2.54672 9.41495 2.5474 9.40223C2.60463 8.35581 3.5257 7.62597 4.60979 7.62597C5.68905 7.62597 6.63678 8.37214 6.61762 9.40687C6.6175 9.41656 6.61669 9.44775 6.59834 9.47986C6.58754 9.49877 6.56938 9.52011 6.54135 9.53426C6.52863 9.54067 6.51611 9.54449 6.50432 9.54651C6.49025 9.54891 6.47723 9.54875 6.46625 9.54739C6.43177 9.54319 6.4079 9.52614 6.40058 9.52081C6.38991 9.51307 6.38086 9.50468 6.37441 9.49827C6.35469 9.47876 6.32833 9.44699 6.30093 9.41391L6.28598 9.39588C6.2151 9.31079 6.11018 9.18795 5.96594 9.06125C5.67814 8.80839 5.23574 8.54161 4.60502 8.54161ZM12.7746 9.05525C12.4593 8.79039 12.0017 8.50985 11.4131 8.50985C10.7824 8.50985 10.34 8.77663 10.0522 9.02948C9.90798 9.15618 9.80305 9.27903 9.73217 9.36411L9.71723 9.38214C9.68982 9.41523 9.66346 9.44699 9.64374 9.4665C9.63729 9.47291 9.62824 9.48131 9.61757 9.48904C9.61026 9.49438 9.58638 9.51143 9.5519 9.51562C9.54093 9.51698 9.5279 9.51714 9.51383 9.51474C9.50204 9.51272 9.48952 9.5089 9.47681 9.50249C9.44878 9.48835 9.43061 9.467 9.41982 9.44809C9.40146 9.41598 9.40065 9.38479 9.40053 9.3751C9.38137 8.34037 10.3291 7.59421 11.4084 7.59421C12.4925 7.59421 13.4135 8.32405 13.4708 9.37046C13.4714 9.38318 13.4716 9.40358 13.4658 9.42593C13.4598 9.44879 13.4437 9.48775 13.4012 9.51174C13.3594 9.53542 13.3186 9.52942 13.2973 9.52345C13.2829 9.51941 13.2705 9.51357 13.2609 9.50824C13.2581 9.5067 13.2556 9.50519 13.2533 9.50378L13.2494 9.50129C13.2142 9.47869 13.172 9.43597 13.1351 9.39856L13.1019 9.36468C13.0209 9.28181 12.9123 9.17086 12.7746 9.05525Z" fill="#231E23"/>
</svg>
