<svg width="385" height="436" viewBox="0 0 385 436" fill="none" xmlns="http://www.w3.org/2000/svg">
<path d="M320.808 38.3005C315.199 38.6121 299.256 39.9882 291.985 40.6374C282.377 28.8225 262.461 5.11475 259.656 4.80314C256.852 4.49154 258.488 37.3916 259.656 53.8806C249.529 67.5132 229.275 95.6355 229.275 99.0631C229.275 103.348 232.391 120.486 252.645 136.845C268.848 149.932 293.413 170.342 303.67 178.911L264.33 157.878C254.723 167.875 234.884 188.337 232.391 190.207C229.275 192.544 165.786 213.188 139.299 261.486C112.813 309.785 110.087 369.768 109.697 411.445C92.9484 413.393 22.8377 408.329 23.2272 353.02C23.2272 316.562 54.6472 314.199 70.3572 317.575C80.8739 320.691 86.3269 337.439 63.7357 345.23C54.0076 348.584 58.2166 370.509 73.4733 367.042C84.2031 364.382 101.739 348.959 101.528 331.846C101.316 314.733 90.7526 291.704 60.3293 291.704C29.906 291.704 1.38417 316.845 0.750356 355.086C0.116536 393.326 34.7653 435.37 111.88 435.37H366.526C366.526 421.76 366.273 404.584 334.971 404.584V372.231C334.971 357.052 339.365 328.294 366.526 275.968C387.696 234.827 384.5 212.344 384.5 201.275C384.5 190.207 379.707 155.341 359.336 128.58C359.336 124.985 378.509 33.1164 362.132 0.762701C357.339 -4.03036 332.586 23.7908 320.808 38.3005Z" fill="#DEEEEA" fill-opacity="0.15"/>
</svg>
