<svg width="13" height="13" viewBox="0 0 13 13" fill="none" xmlns="http://www.w3.org/2000/svg">
<path d="M3.09962 5.97281C3.61695 7.01473 3.40587 8.10845 2.62815 8.41571C1.85044 8.72297 0.800602 8.12741 0.283272 7.08549C-0.234057 6.04357 -0.0229758 4.94984 0.754736 4.64259C1.53245 4.33533 2.58229 4.93089 3.09962 5.97281Z" fill="#DEEEEA"/>
<path d="M10.4479 10.9262C10.4479 13.121 7.66192 11.6491 6.93759 11.6491C6.21326 11.6491 2.32724 13.6679 2.32724 11.4731C2.32724 9.86878 4.76617 6.82669 6.33927 6.82669C8.00899 6.82669 10.4479 9.71077 10.4479 10.9262Z" fill="#DEEEEA"/>
<path d="M5.83029 2.93685C6.12199 4.18636 5.6895 5.32356 4.8643 5.47684C4.03909 5.63013 3.13367 4.74146 2.84197 3.49194C2.55028 2.24242 2.98277 1.10522 3.80797 0.951939C4.63317 0.798654 5.5386 1.68733 5.83029 2.93685Z" fill="#DEEEEA"/>
<path d="M6.81099 2.93685C6.5193 4.18636 6.95179 5.32356 7.77699 5.47684C8.60219 5.63013 9.50762 4.74146 9.79931 3.49194C10.091 2.24242 9.65852 1.10522 8.83331 0.951939C8.00811 0.798655 7.10269 1.68733 6.81099 2.93685Z" fill="#DEEEEA"/>
<path d="M9.53305 6.35757C9.10978 7.43274 9.41724 8.50813 10.2198 8.75953C11.0223 9.01092 12.016 8.34311 12.4393 7.26794C12.8625 6.19277 12.5551 5.11737 11.7526 4.86598C10.95 4.61459 9.95632 5.2824 9.53305 6.35757Z" fill="#DEEEEA"/>
</svg>
