<svg width="108" height="40" viewBox="0 0 108 40" fill="none" xmlns="http://www.w3.org/2000/svg">
<path fill-rule="evenodd" clip-rule="evenodd" d="M37.9607 39.3502H36.7007C36.4394 39.3502 36.3087 39.2195 36.3087 38.9582V21.7382C36.3087 21.4768 36.4394 21.3462 36.7007 21.3462H37.9607C38.222 21.3462 38.3527 21.4768 38.3527 21.7382V29.1022C38.3527 29.2702 38.446 29.3542 38.6327 29.3542H45.5767C45.7634 29.3542 45.8567 29.2702 45.8567 29.1022V21.7382C45.8567 21.4768 45.9874 21.3462 46.2487 21.3462H47.5087C47.77 21.3462 47.9007 21.4768 47.9007 21.7382V38.9582C47.9007 39.2195 47.77 39.3502 47.5087 39.3502H46.2487C45.9874 39.3502 45.8567 39.2195 45.8567 38.9582V31.3982C45.8567 31.2302 45.7634 31.1462 45.5767 31.1462H38.6327C38.446 31.1462 38.3527 31.2302 38.3527 31.3982V38.9582C38.3527 39.2195 38.222 39.3502 37.9607 39.3502ZM51.6041 39.3502H52.8641C53.1255 39.3502 53.2561 39.2195 53.2561 38.9582V32.4342C53.2561 32.2662 53.3495 32.1822 53.5361 32.1822H57.2321L60.3681 38.9582C60.5175 39.2195 60.7508 39.3502 61.0681 39.3502H62.3282C62.6828 39.3502 62.7761 39.2008 62.6082 38.9022L59.3601 32.0982V31.9862C60.2561 31.7622 60.9561 31.3142 61.4602 30.6422C61.9642 29.9515 62.2162 29.0835 62.2162 28.0382V25.4902C62.2162 24.2022 61.8428 23.1942 61.0961 22.4662C60.3495 21.7195 59.3322 21.3462 58.0441 21.3462H51.6041C51.3428 21.3462 51.2121 21.4768 51.2121 21.7382V38.9582C51.2121 39.2195 51.3428 39.3502 51.6041 39.3502ZM57.7641 30.4742H53.5361C53.3495 30.4742 53.2561 30.3902 53.2561 30.2222V23.3902C53.2561 23.2222 53.3495 23.1382 53.5361 23.1382H57.7641C59.3695 23.1382 60.1721 23.9502 60.1721 25.5742V28.0662C60.1721 29.6715 59.3695 30.4742 57.7641 30.4742ZM67.3152 21.7382V38.9582C67.3152 39.2195 67.1845 39.3502 66.9232 39.3502H65.6632C65.4019 39.3502 65.2712 39.2195 65.2712 38.9582V21.7382C65.2712 21.4768 65.4019 21.3462 65.6632 21.3462H66.9232C67.1845 21.3462 67.3152 21.4768 67.3152 21.7382ZM70.5691 34.3102V35.2062C70.5691 36.4942 70.9425 37.5115 71.6891 38.2582C72.4358 38.9862 73.4438 39.3502 74.7131 39.3502H77.9331C79.2025 39.3502 80.2105 38.9862 80.9571 38.2582C81.7038 37.5115 82.0771 36.4942 82.0771 35.2062V33.9462C82.0771 33.1062 81.8998 32.3968 81.5451 31.8182C81.2091 31.2208 80.7611 30.7822 80.2011 30.5022C79.6411 30.2035 79.0158 29.9608 78.3251 29.7742C77.6531 29.5688 76.9811 29.4102 76.3091 29.2982C75.6371 29.1675 75.0211 29.0275 74.4611 28.8782C73.2105 28.5235 72.5851 27.8702 72.5851 26.9182V25.7982C72.5851 24.0248 73.4158 23.1382 75.0771 23.1382H77.4571C79.1185 23.1382 79.9491 23.9875 79.9491 25.6862V26.1902C79.9491 26.4702 80.0705 26.6102 80.3131 26.6102H81.6011C81.8438 26.6102 81.9651 26.4702 81.9651 26.1902V25.4902C81.9651 24.2022 81.5918 23.1942 80.8451 22.4662C80.0985 21.7195 79.0905 21.3462 77.8211 21.3462H74.7131C73.4251 21.3462 72.4078 21.7195 71.6611 22.4662C70.9331 23.1942 70.5691 24.2022 70.5691 25.4902V26.8622C70.5691 27.9822 70.8958 28.8688 71.5491 29.5222C72.2025 30.1568 72.9958 30.5862 73.9291 30.8102C74.8625 31.0342 75.7958 31.2302 76.7291 31.3982C78.9505 31.8088 80.0611 32.6862 80.0611 34.0302V34.9822C80.0611 36.6995 79.2305 37.5582 77.5691 37.5582H75.1051C73.4438 37.5582 72.6131 36.7182 72.6131 35.0382V34.3102C72.6131 34.0488 72.4825 33.9182 72.2211 33.9182H70.9611C70.6998 33.9182 70.5691 34.0488 70.5691 34.3102ZM89.5724 39.3502H88.3124C88.051 39.3502 87.9204 39.2195 87.9204 38.9582V23.3902C87.9204 23.2222 87.827 23.1382 87.6404 23.1382H83.8324C83.5524 23.1382 83.4124 23.0075 83.4124 22.7462V21.7382C83.4124 21.4768 83.5524 21.3462 83.8324 21.3462H94.0524C94.2275 21.3462 94.3479 21.3973 94.4135 21.4996C94.4199 21.4849 94.4279 21.4711 94.4376 21.4582C94.4936 21.3835 94.5776 21.3462 94.6896 21.3462H96.2576C96.4629 21.3462 96.6216 21.4768 96.7336 21.7382L100.738 30.2222H100.878L104.854 21.7382C104.928 21.4768 105.078 21.3462 105.302 21.3462H106.898C107.215 21.3462 107.299 21.4862 107.15 21.7662L101.802 32.6022V38.9582C101.802 39.2195 101.671 39.3502 101.41 39.3502H100.15C99.8883 39.3502 99.7576 39.2195 99.7576 38.9582V32.6022L94.4724 21.837V22.7462C94.4724 23.0075 94.3324 23.1382 94.0524 23.1382H90.2444C90.0577 23.1382 89.9644 23.2222 89.9644 23.3902V38.9582C89.9644 39.2195 89.8337 39.3502 89.5724 39.3502Z" fill="#DEEEEA"/>
<path fill-rule="evenodd" clip-rule="evenodd" d="M32.234 0.127803C32.4693 0.0607063 33.0104 -0.0204756 33.4439 0.413053C33.5187 0.487887 33.5812 0.574126 33.629 0.66855C34.0809 1.56123 34.2459 2.75267 34.2905 3.91871C34.3362 5.1152 34.2581 6.41884 34.1382 7.61815C34.0178 8.82141 33.8531 9.94187 33.7194 10.7766C33.6622 11.1337 33.6102 11.4413 33.5702 11.6778L33.5512 11.7905L33.5472 11.814C35.252 14.2763 35.6529 17.261 35.6529 18.2968C35.6529 18.3708 35.6555 18.4615 35.6585 18.5671C35.6714 19.021 35.6923 19.7559 35.5517 20.6804C35.3757 21.8377 34.954 23.3035 34.0024 25.1529L34.0007 25.156C33.8776 25.3933 33.7602 25.6244 33.6483 25.8496V26.8622C33.6483 27.1235 33.5176 27.2542 33.2563 27.2542H32.2055C31.6029 27.2087 31.6031 26.6054 31.6033 25.5482L31.6033 25.4792C31.5731 23.9185 30.7894 23.1382 29.2523 23.1382H26.3683C24.8189 23.1382 24.0443 23.9502 24.0443 25.5742V35.1222C24.0443 36.2717 24.4324 37.0143 25.2086 37.3502H30.4259C31.6033 37.3502 31.6043 37.1956 31.6033 36.8462C31.6033 36.8462 31.6043 35.7304 31.6043 34.819V33.8342C31.6043 33.5728 31.7349 33.4422 31.9963 33.4422H33.2563C33.5176 33.4422 33.6483 33.5728 33.6483 33.8342V35.2062C33.6483 35.2694 33.65 35.4321 33.6524 35.6504L33.6524 35.6527C33.6608 36.4334 33.6768 37.9212 33.6483 38.1247C33.6483 38.1247 33.363 39.3502 32.5283 39.3502H24.3893C23.4014 39.0928 22.7318 38.6659 22.3558 37.726C21.9799 36.7862 22.0003 36.1478 22.0003 35.2062V25.4902C22.0003 24.1835 22.3643 23.1662 23.0923 22.4382C23.8389 21.7102 24.8563 21.3462 26.1443 21.3462H29.5043C30.7923 21.3462 31.8003 21.7102 32.5283 22.4382C32.6539 22.5606 32.7689 22.6913 32.8734 22.8301C33.2774 21.8319 33.4765 21.0241 33.5745 20.3797C33.6851 19.6524 33.6716 19.1376 33.6598 18.6847C33.6563 18.5513 33.6529 18.4233 33.6529 18.2968C33.6529 17.486 33.272 14.7382 31.7016 12.6751C31.5691 12.501 31.4973 12.2882 31.4973 12.0694C31.4973 11.9621 31.5179 11.832 31.5257 11.7827L31.5272 11.7727C31.5401 11.69 31.5581 11.5821 31.579 11.4579L31.5983 11.3437C31.6384 11.1069 31.6888 10.8087 31.7446 10.4603C31.875 9.6462 32.0332 8.56826 32.1481 7.41914C32.2634 6.26606 32.3328 5.06334 32.2919 3.99514C32.2712 3.4535 32.2229 2.97677 32.1493 2.57351C32.0687 2.64876 31.9836 2.73067 31.8944 2.81886C31.2224 3.48357 30.4654 4.35971 29.9732 4.96601C29.7956 5.1849 29.5338 5.31862 29.2523 5.33425C28.7926 5.35979 27.4466 5.47577 26.8166 5.53202C26.4856 5.56157 26.1615 5.42474 25.9518 5.16689C25.6619 4.81034 25.2618 4.32679 24.8573 3.85213C24.8836 4.48227 24.9219 5.12149 24.9558 5.59975C24.9727 5.83822 24.9036 6.07485 24.761 6.26676C24.3314 6.84515 23.688 7.7295 23.1545 8.50186C22.8866 8.88963 22.654 9.23832 22.4912 9.50191C22.4454 9.5762 22.408 9.63898 22.3785 9.69057C22.3831 9.7129 22.3887 9.73763 22.3954 9.7647C22.4313 9.91026 22.4957 10.1066 22.6068 10.3369C22.8271 10.7938 23.2353 11.3932 23.986 11.9995C25.3809 13.1262 27.4906 14.8791 28.3698 15.6136C28.7633 15.9423 28.8444 16.5153 28.5577 16.9403C28.271 17.3653 27.7093 17.5046 27.2572 17.2629L24.5539 15.8176C24.2146 16.1685 23.8301 16.5643 23.476 16.9253C23.1976 17.2092 22.9355 17.4741 22.7281 17.6794C22.5527 17.8531 22.3454 18.0566 22.2226 18.1487C22.1086 18.2342 21.9727 18.295 21.9334 18.3126L21.927 18.3155C21.8586 18.3466 21.7739 18.3826 21.686 18.4198L21.6067 18.4533C21.4376 18.5247 21.2309 18.612 20.9886 18.7194C20.4272 18.9685 19.6878 19.3207 18.8924 19.7876C17.2825 20.7327 15.5336 22.0961 14.5249 23.9355C12.3892 27.8301 12.1456 32.7351 12.1122 36.3101C12.0994 37.6765 9.94761 37.3502 12.7713 37.3502C15.7757 37.3502 19.4068 32.7094 19.5578 32.8677C20.393 33.7432 18.8924 39.3502 11.2992 39.3502C4.32444 39.3502 0.713166 35.4636 0.779586 31.4562C0.842595 27.6547 3.71135 25.0433 6.88321 25.0433C8.46981 25.0433 9.63762 25.6586 10.3918 26.5791C10.6553 26.9006 10.8604 27.2493 11.0154 27.6067C11.4059 26.0213 11.9662 24.4419 12.7713 22.9739C14.0315 20.6759 16.1364 19.0863 17.8798 18.0629C18.7611 17.5455 19.5732 17.1594 20.1775 16.8913C20.4376 16.7759 20.6616 16.6814 20.8306 16.61L20.9068 16.5778C20.9712 16.5506 21.021 16.5294 21.0594 16.5126C21.1038 16.4703 21.1882 16.3896 21.3209 16.2582C21.518 16.0631 21.7722 15.8062 22.0482 15.5248C22.5084 15.0556 23.0221 14.5254 23.4179 14.1147C23.1759 13.9172 22.944 13.7287 22.7294 13.5554C20.7635 11.9676 20.3557 10.2155 20.3557 9.54094C20.3557 9.33054 20.4202 9.16043 20.4402 9.10793C20.4711 9.02644 20.5082 8.94839 20.5413 8.88355C20.6084 8.75205 20.6958 8.60294 20.7895 8.45115C20.9792 8.14396 21.2345 7.76234 21.5089 7.36517C21.9739 6.69205 22.515 5.94303 22.9358 5.37133C22.8916 4.68516 22.846 3.8052 22.8309 3.04861C22.822 2.60298 22.823 2.17354 22.8451 1.84591C22.8556 1.69138 22.8737 1.50737 22.914 1.34297C22.9316 1.27127 22.9725 1.11971 23.0685 0.965292C23.1512 0.832441 23.4721 0.406104 24.0687 0.4724C24.3241 0.500774 24.5096 0.619984 24.5561 0.64992L24.5594 0.652005C24.6369 0.701642 24.7051 0.755999 24.757 0.799757C24.8633 0.889326 24.978 1.00026 25.0894 1.1135C25.3161 1.34388 25.5924 1.6487 25.8761 1.97205C26.3086 2.46495 26.7815 3.02735 27.1663 3.49357C27.6512 3.45154 28.2536 3.40083 28.699 3.36745C29.2025 2.76463 29.8677 2.01043 30.4879 1.39694C30.8529 1.03595 31.2402 0.685476 31.5901 0.4476C31.7573 0.333957 31.982 0.199664 32.234 0.127803ZM2.7049 31.2958L2.7049 31.2923C2.70645 28.4823 4.26413 27.099 6.64881 27.0377C9.0335 26.9763 10.2566 29.0924 8.89187 30.7444C8.5928 31.0474 8.20048 31.296 7.7437 31.4826C7.18208 31.5703 6.46098 31.816 6.47147 32.5958C6.48325 33.4721 7.65094 33.6039 8.23076 33.4721L8.24978 33.4676C8.95341 33.2932 9.71521 32.7725 10.2903 32.1396C10.1911 33.2691 10.1473 34.3439 10.1267 35.319C10.1267 36.6223 8.1822 37.3707 7.084 36.9254C5.52022 36.2913 2.7049 34.677 2.7049 31.2958Z" fill="#DEEEEA"/>
</svg>
